<svg id="Layer_1" data-name="Layer 1" xmlns="http://www.w3.org/2000/svg" viewBox="0 0 495 96"><defs><style>.cls-1{fill:#14034d;}</style></defs><path class="cls-1" d="M18.91,92.11A29,29,0,0,1,5.83,80.17,19.7,19.7,0,0,1,3.2,71.81V24.11a18.51,18.51,0,0,1,2.63-8.19A27.19,27.19,0,0,1,11.51,9.2a28.79,28.79,0,0,1,7.4-4.6,19.73,19.73,0,0,1,7.77-1.71h2.25v13.2H26.84A8,8,0,0,0,23,17.22a15.69,15.69,0,0,0-3.76,2.92,17.35,17.35,0,0,0-2.84,4,9.47,9.47,0,0,0-1.12,4.3V68.3a9.48,9.48,0,0,0,1.12,4.31,18.25,18.25,0,0,0,2.84,4,16.64,16.64,0,0,0,3.76,3,7.84,7.84,0,0,0,3.8,1.16h2.09V94H26.68A18.51,18.51,0,0,1,18.91,92.11Z"/><path class="cls-1" d="M103.62,2.89v13.2H28.93V2.89Zm0,77.94V94H28.93V80.83ZM66.36,28.54a17.26,17.26,0,0,1,6.22-3.47,24.92,24.92,0,0,1,7.56-1.13q8.77,0,14.2,4.39t6.19,13V72.65H88V42.49q0-3.77-1.8-5.56t-5.89-1.79q-7.28,0-7.77,8.6V72.65H60v-29a11.63,11.63,0,0,0-2-6.06q-1.76-2.46-5.68-2.46-7.26,0-7.77,8.6V72.65H32V41.32a19.49,19.49,0,0,1,2-7.6,16.92,16.92,0,0,1,4.39-5.43A18.11,18.11,0,0,1,44.64,25a25.09,25.09,0,0,1,7.52-1.09Q61,23.94,66.36,28.54Z"/><path class="cls-1" d="M159,2.89v13.2H103.62V2.89Zm-.08,77.94V94h-55.3V80.83ZM108.17,39.11a23.83,23.83,0,0,1,12.91-13.25,26.76,26.76,0,0,1,20.3,0,24.84,24.84,0,0,1,7.89,5.39,24,24,0,0,1,5.1,7.86,25.05,25.05,0,0,1,1.79,9.39,23.75,23.75,0,0,1-1.88,9.44,25,25,0,0,1-5.18,7.81,24.1,24.1,0,0,1-7.89,5.35,25,25,0,0,1-9.94,2,24,24,0,0,1-9.69-2,25.43,25.43,0,0,1-13.24-13.16,23,23,0,0,1-2-9.44A24.87,24.87,0,0,1,108.17,39.11Zm11.49,14.45a14.5,14.5,0,0,0,2.84,4.18,13.53,13.53,0,0,0,4,2.84,11.36,11.36,0,0,0,4.72,1,11.88,11.88,0,0,0,4.68-1,12.66,12.66,0,0,0,4-2.72,13.2,13.2,0,0,0,2.79-4.13,13,13,0,0,0,1.05-5.31,13.37,13.37,0,0,0-1.05-5.3A13.05,13.05,0,0,0,140,39a13.3,13.3,0,0,0-4-2.76,11.42,11.42,0,0,0-4.68-1,10.83,10.83,0,0,0-4.72,1.09,13.84,13.84,0,0,0-4,2.88,14.3,14.3,0,0,0-2.84,4.22,12.19,12.19,0,0,0-1.09,5.09A12,12,0,0,0,119.66,53.56Z"/><path class="cls-1" d="M214.39,2.89v13.2H159V2.89Zm-.08,77.94V94H159V80.83ZM163.55,39.11a23.92,23.92,0,0,1,12.91-13.25,26.76,26.76,0,0,1,20.3,0,24.77,24.77,0,0,1,7.9,5.39,23.82,23.82,0,0,1,5.09,7.86,24.87,24.87,0,0,1,1.8,9.39,23.92,23.92,0,0,1-1.88,9.44,25,25,0,0,1-5.18,7.81,24.1,24.1,0,0,1-7.89,5.35,25.06,25.06,0,0,1-9.95,2,24,24,0,0,1-9.69-2,25.53,25.53,0,0,1-13.24-13.16,23,23,0,0,1-2-9.44A25.05,25.05,0,0,1,163.55,39.11ZM175,53.56a14.71,14.71,0,0,0,2.84,4.18,13.53,13.53,0,0,0,4.05,2.84,11.43,11.43,0,0,0,4.72,1,11.81,11.81,0,0,0,4.68-1,12.55,12.55,0,0,0,4-2.72,13.4,13.4,0,0,0,2.8-4.13,13,13,0,0,0,1.05-5.31A13.5,13.5,0,0,0,195.34,39a13.18,13.18,0,0,0-4-2.76,11.35,11.35,0,0,0-4.68-1,10.89,10.89,0,0,0-4.72,1.09,13.84,13.84,0,0,0-4.05,2.88A14.49,14.49,0,0,0,175,43.41,12.34,12.34,0,0,0,174,48.5,12.1,12.1,0,0,0,175,53.56Z"/><path class="cls-1" d="M269.11,2.89v13.2H214.39V2.89Zm0,77.94V94H214.39V80.83ZM249.77,25a27.15,27.15,0,0,1,7.6,3.26,20.22,20.22,0,0,1,5.81,5.43,14.64,14.64,0,0,1,2.67,7.6V72.65H253.49V43.83a7.52,7.52,0,0,0-1.3-3.72,9.83,9.83,0,0,0-2.84-2.72,14.93,14.93,0,0,0-7.73-2.25A14,14,0,0,0,234.23,37a9.62,9.62,0,0,0-4.3,5.64v30H217.48V41.32a14.72,14.72,0,0,1,2.59-7.48,20.57,20.57,0,0,1,5.64-5.43,26.13,26.13,0,0,1,7.6-3.34,32.78,32.78,0,0,1,8.48-1.13A31.16,31.16,0,0,1,249.77,25Z"/><path class="cls-1" d="M311.46,2.89v13.2H269V2.89Zm0,77.94V94H269V80.83ZM284.39,24.28V61.45h23.9v11.2H272.11V24.28Z"/><path class="cls-1" d="M364.42,2.89v13.2H309V2.89Zm-.08,77.94V94H309V80.83ZM313.59,39.11A23.83,23.83,0,0,1,326.5,25.86a26.76,26.76,0,0,1,20.3,0,24.84,24.84,0,0,1,7.89,5.39,24,24,0,0,1,5.1,7.86,24.86,24.86,0,0,1,1.79,9.39,23.92,23.92,0,0,1-1.87,9.44,25.29,25.29,0,0,1-5.18,7.81,24.15,24.15,0,0,1-7.9,5.35,25,25,0,0,1-9.94,2,24,24,0,0,1-9.69-2,25.43,25.43,0,0,1-13.24-13.16,23,23,0,0,1-2-9.44A24.87,24.87,0,0,1,313.59,39.11Zm11.49,14.45a14.5,14.5,0,0,0,2.84,4.18A13.53,13.53,0,0,0,332,60.58a11.36,11.36,0,0,0,4.72,1,11.88,11.88,0,0,0,4.68-1,12.66,12.66,0,0,0,4-2.72,13.4,13.4,0,0,0,2.8-4.13,13.2,13.2,0,0,0,1-5.31,13.54,13.54,0,0,0-1-5.3,13.07,13.07,0,0,0-6.81-7,11.42,11.42,0,0,0-4.68-1A10.83,10.83,0,0,0,332,36.31a13.84,13.84,0,0,0-4.05,2.88,14.3,14.3,0,0,0-2.84,4.22A12.19,12.19,0,0,0,324,48.5,12,12,0,0,0,325.08,53.56Z"/><path class="cls-1" d="M419.81,2.89v13.2H364.42V2.89Zm-.08,77.94V94H364.42V80.83ZM369,39.11a23.86,23.86,0,0,1,12.9-13.25,25.36,25.36,0,0,1,10.2-2,25.08,25.08,0,0,1,10.1,2,24.77,24.77,0,0,1,7.9,5.39,23.82,23.82,0,0,1,5.09,7.86A24.87,24.87,0,0,1,417,48.5a23.92,23.92,0,0,1-1.88,9.44,25,25,0,0,1-5.18,7.81A24.1,24.1,0,0,1,402,71.1a25.05,25.05,0,0,1-9.94,2,24,24,0,0,1-9.7-2,25.53,25.53,0,0,1-13.24-13.16,23,23,0,0,1-2-9.44A24.87,24.87,0,0,1,369,39.11Zm11.48,14.45a14.71,14.71,0,0,0,2.84,4.18,13.45,13.45,0,0,0,4.06,2.84,11.36,11.36,0,0,0,4.72,1,11.8,11.8,0,0,0,4.67-1,12.55,12.55,0,0,0,4-2.72,13.23,13.23,0,0,0,2.8-4.13,13,13,0,0,0,1.05-5.31,13.37,13.37,0,0,0-1.05-5.3,13.07,13.07,0,0,0-6.81-7,11.34,11.34,0,0,0-4.67-1,10.83,10.83,0,0,0-4.72,1.09,13.75,13.75,0,0,0-4.06,2.88,14.49,14.49,0,0,0-2.84,4.22,12.34,12.34,0,0,0-1.08,5.09A12.1,12.1,0,0,0,380.46,53.56Z"/><path class="cls-1" d="M468.1,2.89v13.2H417.39V2.89ZM468,80.83V94H417.39V80.83Zm-3.17-45.36H449V72.65H436.52V35.47h-16V24.28h44.36Z"/><path class="cls-1" d="M467.93,80.83h2.17a7.81,7.81,0,0,0,3.8-1.16,16.22,16.22,0,0,0,3.76-3,17.93,17.93,0,0,0,2.84-4,9.5,9.5,0,0,0,1.13-4.31V28.45a9.49,9.49,0,0,0-1.13-4.3,17.06,17.06,0,0,0-2.84-4,15.31,15.31,0,0,0-3.76-2.92,8,8,0,0,0-3.8-1.13h-2.17V2.89h2.34A19.8,19.8,0,0,1,478,4.6a28.18,28.18,0,0,1,7.35,4.6A27.25,27.25,0,0,1,491,15.92a18.51,18.51,0,0,1,2.63,8.19v47.7A19.7,19.7,0,0,1,491,80.17a29.13,29.13,0,0,1-5.64,7.06A28.43,28.43,0,0,1,478,92.11,18.58,18.58,0,0,1,470.27,94h-2.34Z"/><rect class="cls-1" x="29" y="81" width="439" height="13"/><rect class="cls-1" x="29" y="3" width="439" height="13"/></svg>